<?xml version="1.0" standalone="no"?><!DOCTYPE svg PUBLIC "-//W3C//DTD SVG 1.1//EN" "http://www.w3.org/Graphics/SVG/1.1/DTD/svg11.dtd"><svg t="1584876901394" class="icon" viewBox="0 0 1024 1024" version="1.1" xmlns="http://www.w3.org/2000/svg" p-id="4249" xmlns:xlink="http://www.w3.org/1999/xlink" width="200" height="200"><defs><style type="text/css"></style></defs><path d="M1024 967.6535a55.788613 55.788613 0 0 1-55.788613 55.788614h-261.648598V627.621901h133.055844l20.0839-153.418687h-153.139744v-99.861618c0-44.630891 12.552438-75.314628 76.709344-75.314628H864.723509v-139.471534a1099.314628 1099.314628 0 0 0-119.10869-6.136747c-117.992917 0-198.886407 71.967311-198.886407 204.186325V474.203214h-133.334786v153.418687h133.334786v396.378099H55.788613a55.788613 55.788613 0 0 1-55.788613-55.788613V55.788613a55.788613 55.788613 0 0 1 55.788613-55.788613h911.864887a55.788613 55.788613 0 0 1 55.788614 55.788613v911.864887" fill="#6281c4" p-id="4250"></path></svg>