<?xml version="1.0" standalone="no"?><!DOCTYPE svg PUBLIC "-//W3C//DTD SVG 1.1//EN" "http://www.w3.org/Graphics/SVG/1.1/DTD/svg11.dtd"><svg t="1584799144645" class="icon" viewBox="0 0 1024 1024" version="1.1" xmlns="http://www.w3.org/2000/svg" p-id="6443" xmlns:xlink="http://www.w3.org/1999/xlink" width="200" height="200"><defs><style type="text/css"></style></defs><path d="M819.2 391.68h-204.8c-7.68 0-10.24 2.56-10.24 10.24v222.72c0 10.24 2.56 12.8 12.8 12.8h197.12c12.8 0 17.92-5.12 17.92-15.36v-217.6c0-12.8-2.56-12.8-12.8-12.8z m-17.92 84.48h-5.12c-20.48 0-17.92-2.56-17.92 17.92V588.8c0 25.6-7.68 35.84-33.28 38.4-12.8 2.56-28.16 0-38.4 0-5.12 0-7.68-2.56-7.68-7.68V614.4c0-23.04 0-23.04 20.48-23.04 23.04-2.56 25.6-5.12 25.6-25.6v-71.68c-30.72 46.08-69.12 74.24-112.64 102.4v-38.4c0-7.68 5.12-7.68 10.24-10.24 28.16-20.48 53.76-40.96 74.24-71.68h-84.48c-10.24 0-15.36-2.56-15.36-12.8 2.56-23.04 0-23.04 23.04-23.04h92.16c10.24 0 12.8-2.56 10.24-10.24v-10.24c0-20.48-5.12-17.92 17.92-17.92 12.8 0 17.92 2.56 15.36 15.36-2.56 5.12 0 10.24 0 17.92 0 5.12 2.56 7.68 7.68 7.68 5.12 0 10.24 2.56 17.92 0 15.36-2.56 17.92 5.12 17.92 17.92 0 12.8-2.56 17.92-17.92 15.36z m0 0" fill="#22C5A8" p-id="6444"></path><path d="M514.56 5.12C232.96 5.12 5.12 232.96 5.12 514.56S232.96 1024 514.56 1024 1024 796.16 1024 514.56 796.16 5.12 514.56 5.12z m-350.72 512c2.56-23.04-2.56-20.48 20.48-20.48h112.64c7.68 0 15.36 2.56 15.36-10.24s-5.12-10.24-15.36-10.24H199.68c-10.24 0-15.36-2.56-12.8-12.8v-10.24c-2.56-7.68 2.56-12.8 10.24-10.24h97.28c7.68 0 12.8 0 12.8-10.24s-5.12-12.8-12.8-10.24H186.88c-20.48 0-17.92 2.56-17.92-17.92 0-17.92 2.56-20.48 15.36-20.48 20.48 2.56 43.52 0 66.56 0-10.24-15.36-17.92-23.04-23.04-38.4h33.28c2.56 0 5.12 2.56 7.68 5.12 2.56 2.56 2.56 5.12 2.56 5.12 12.8 20.48 28.16 35.84 53.76 30.72h7.68c25.6 5.12 40.96-7.68 51.2-28.16 5.12-10.24 12.8-15.36 23.04-12.8 7.68 2.56 15.36 0 23.04 0-5.12 15.36-12.8 25.6-23.04 38.4h69.12c10.24 0 12.8 2.56 12.8 12.8 0 20.48 0 20.48-20.48 20.48H358.4c-10.24 0-10.24 2.56-10.24 12.8 0 7.68 2.56 10.24 10.24 10.24h97.28c10.24 0 15.36 2.56 12.8 12.8v7.68c2.56 15.36-5.12 15.36-15.36 15.36-30.72-2.56-58.88 0-89.6 0-7.68 0-17.92-5.12-17.92 10.24 0 15.36 7.68 10.24 17.92 10.24h115.2c10.24 0 15.36 2.56 15.36 12.8-2.56 20.48 0 20.48-20.48 20.48H176.64c-10.24 0-12.8-2.56-12.8-12.8z m309.76 163.84c-58.88-5.12-104.96-28.16-143.36-74.24-38.4 56.32-97.28 66.56-158.72 74.24-7.68 2.56-10.24-2.56-10.24-10.24 0-7.68-2.56-17.92 2.56-25.6 5.12-7.68 15.36-2.56 23.04-5.12 23.04 0 43.52-7.68 64-15.36 17.92-7.68 30.72-20.48 40.96-35.84H174.08c-7.68 0-10.24-2.56-10.24-10.24-2.56-25.6-2.56-25.6 23.04-25.6h102.4c10.24 0 15.36-2.56 15.36-12.8 0-7.68 2.56-10.24 10.24-7.68h17.92c10.24-2.56 17.92 0 15.36 15.36-2.56 10.24 7.68 7.68 10.24 7.68h117.76c10.24 0 17.92 2.56 15.36 15.36v10.24c2.56 7.68-2.56 10.24-10.24 10.24h-117.76c23.04 33.28 56.32 43.52 89.6 51.2 10.24 2.56 23.04 5.12 33.28 5.12 7.68 0 10.24 5.12 10.24 10.24 0 25.6 0 25.6-23.04 23.04z m394.24-30.72c0 20.48-5.12 28.16-28.16 28.16H581.12c-10.24 0-12.8-2.56-12.8-12.8V371.2c0-10.24 2.56-15.36 12.8-15.36h273.92c10.24 0 12.8 5.12 12.8 15.36v279.04z m0 0" fill="#22C5A8" p-id="6445"></path></svg>