<?xml version="1.0" standalone="no"?><!DOCTYPE svg PUBLIC "-//W3C//DTD SVG 1.1//EN" "http://www.w3.org/Graphics/SVG/1.1/DTD/svg11.dtd"><svg t="1584799281215" class="icon" viewBox="0 0 1024 1024" version="1.1" xmlns="http://www.w3.org/2000/svg" p-id="8688" xmlns:xlink="http://www.w3.org/1999/xlink" width="200" height="200"><defs><style type="text/css"></style></defs><path d="M530.347 462.763l-4.523 31.914 28.33-5.888-1.791-29.098z m-52.907-3.072l-7.68-16.214-9.813 12.118-3.158 27.818 24.235-2.218-7.253 17.493 23.808-9.899-2.646-25.514z" fill="#DF2D27" p-id="8689"></path><path d="M969.643 6.23H52.565c-27.306 0-49.408 22.1-49.408 49.407V972.8c0 27.307 22.102 49.408 49.408 49.408h917.078c27.306 0 49.408-22.101 49.408-49.408V55.723c0-27.307-22.102-49.494-49.408-49.494zM585.557 525.567l-9.045 53.845-19.285 13.483-10.752-70.4H526.25l-15.19 56.917-20.65 13.483-0.939-67.328-17.493-2.219-4.011-17.92-8.533 8.107-10.326 78.507-42.154-28.246 24.661-8.106-4.95-36.352-12.543 12.544-13.483-43.52 29.184-5.376-1.792-26.88h-7.595l-16.64-27.819 21.504-6.315 20.224-43.52 12.118 41.728 20.224 0.427-0.939 16.64 26.027-6.315-18.859-52.053 50.261 20.224-12.544 34.133 23.808-3.157 22.016-53.419 37.206 26.454-34.987 26.88h33.621l8.107 30.037-24.661 0.427-6.315 28.672 28.672 6.314 10.325 27.819-34.048 2.304z" fill="#DF2D27" p-id="8690"></path><path d="M274.432 154.624v308.48l228.181-153.941-228.181-154.539z m105.045 187.221h-67.072l0.171-50.005-8.363 8.363-16.64-16.726 25.003-25.002h8.363c3.328 9.728 13.909 16.64 24.832 16.64 10.837 0 21.76-6.912 25.173-16.64h8.363l25.002 25.002-16.64 16.64-8.362-8.362 0.17 50.09z m-346.88-32.682L260.78 463.019V154.624L32.597 309.163z m184.235 49.493c-0.085 1.195-1.11 2.219-2.304 2.219h-56.917c-1.28 0-2.304-1.024-2.304-2.219-0.683-12.373 1.536-22.528 7.082-31.915 6.912-11.605 9.216-18.005 9.302-22.528v-0.17c0-3.499-1.366-5.974-3.158-9.046-8.277-14.677-3.498-23.381-3.242-23.808 0.17-0.426 0.597-0.768 1.024-0.938 1.365-0.598 2.645-1.024 4.096-1.195v-6.23c0-1.28 1.109-2.303 2.304-2.303s2.304 1.109 2.304 2.304v6.314c4.949 0.768 8.96 3.755 11.093 5.632 2.304-1.962 6.57-5.12 11.776-5.717v-6.23c0-1.28 1.11-2.303 2.304-2.303 1.28 0 2.304 1.109 2.304 2.304v6.485c1.11 0.256 2.304 0.597 3.328 1.11 0.427 0.17 0.768 0.511 1.024 0.938 0.17 0.427 5.035 9.13-3.243 23.808-1.706 2.987-3.157 5.461-3.157 8.96v0.341c0.085 4.523 2.39 10.838 9.301 22.443 5.462 9.301 7.68 19.456 7.083 31.744zM340.736 625.92h13.995c1.28 0 2.304-0.256 2.304-0.512s-1.024-0.512-2.304-0.512h-13.995c-1.28 0-2.304 0.256-2.304 0.512s1.024 0.512 2.304 0.512z m6.997 15.019c-14.25 0-25.77 11.52-25.77 25.77s11.52 25.771 25.77 25.771 25.771-11.52 25.771-25.77-11.52-25.771-25.77-25.771z m0 43.69c-9.898 0-17.92-8.021-17.92-17.92s8.022-17.92 17.92-17.92 17.92 8.022 17.92 17.92-8.021 17.92-17.92 17.92z" fill="#FFFFFF" p-id="8691"></path><path d="M274.432 498.944v308.48l228.181-153.856-228.181-154.624z m118.016 204.288h-89.43a8.595 8.595 0 0 1-8.618-8.619v-55.808a8.595 8.595 0 0 1 8.619-8.618h26.197l3.755-7.766c0.597-1.109 2.048-2.133 3.328-2.133h22.954c1.28 0 2.816 0.939 3.328 2.133l3.755 7.766h26.197a8.595 8.595 0 0 1 8.619 8.618v55.808c-0.085 4.779-3.925 8.619-8.704 8.619zM277.589 820.395L499.712 970.24V669.952L277.589 820.395z m189.44 2.73c-6.485 0-11.946 2.731-13.141 6.315h-0.512c-1.195-3.67-6.656-6.4-13.227-6.4-4.181 0-7.936 1.11-10.41 2.901v30.55c0 7.594-6.144 13.738-13.739 13.738-7.595 0-13.739-6.144-13.739-13.738 0-1.707 1.366-3.072 3.072-3.072s3.072 1.365 3.072 3.072c0 4.266 3.414 7.68 7.68 7.68s7.68-3.414 7.68-7.68v-30.464c-2.474-1.792-6.229-2.902-10.41-2.902-6.486 0-11.947 2.731-13.142 6.315h-0.512c-1.194-3.67-6.656-6.4-13.226-6.4-4.182 0-7.936 1.11-10.411 2.901 1.963-21.674 22.357-38.826 47.701-40.106v-2.304c0-1.707 1.366-3.072 3.072-3.072s3.072 1.365 3.072 3.072v2.304c25.344 1.28 45.739 18.517 47.702 40.192-2.646-1.792-6.4-2.902-10.582-2.902z m296.022-345.002l222.122 149.76V327.68L763.051 478.123z m114.688 26.197h-5.206c-0.426 0-0.853-0.085-1.28-0.085-0.256 0-0.512 0-0.682-0.086-0.171 0-0.427 0-0.598-0.085-0.256 0-0.512 0-0.768-0.085-0.17 0-0.341 0-0.512-0.086-0.341 0-0.597-0.085-0.938-0.085h-0.342c-19.541-2.133-37.034-10.581-49.92-22.528-0.768-0.683-1.45-1.365-2.133-2.048l-0.17-0.17-1.025-1.025-0.085-0.512v-0.085l0.17-0.683c0.342-0.341 0.683-0.682 0.94-1.024l0.17-0.17c15.53-15.36 38.315-25.6 63.83-25.088 29.098 0.682 43.093 8.96 65.365 26.88-22.272 17.92-36.267 26.197-65.366 26.88-0.597 0.085-1.024 0.085-1.45 0.085z m66.645-26.795l19.712-16.469 0.256 32.853c-7.595-6.144-19.968-16.384-19.968-16.384z" fill="#FFFFFF" p-id="8692"></path><path d="M835.755 471.979c-2.987 0-5.376 2.389-5.376 5.376s2.389 5.376 5.376 5.376 5.376-2.39 5.376-5.376-2.39-5.376-5.376-5.376z m-80.043-317.355v308.48l228.181-153.941-228.181-154.539z m94.89 203.35c-16.383 0-29.695-13.313-29.695-29.697 0-14.848 11.008-27.221 25.344-29.354 2.133-9.899 10.496-21.334 17.152-29.184-22.87 3.328-34.816 15.189-39.936 21.845 1.962 0.939 3.925 2.048 5.717 3.413-10.923 7.083-18.176 19.371-18.176 33.28 0 6.998 1.877 13.568 5.035 19.371-1.707 0.256-3.328 0.512-5.035 0.512-16.384 0-29.696-13.312-29.696-29.696s13.312-29.696 29.696-29.696c0.768 0 1.536 0.17 2.304 0.17 5.29-8.191 22.784-29.695 62.037-29.951 2.048 0 3.84 1.194 4.608 3.072 0.768 1.877 0.342 4.01-1.024 5.376-7.765 7.765-19.456 22.016-22.528 31.744 13.654 2.645 23.979 14.677 23.979 29.184-0.085 16.298-13.397 29.61-29.781 29.61zM675.414 652.8v-15.787a0.184 0.184 0 0 0-0.17-0.17h-5.888a0.184 0.184 0 0 0-0.171 0.17v21.76c0 0.086 0.085 0.171 0.17 0.171h5.889c0.085 0 0.17-0.085 0.17-0.17V652.8z m14.507-28.16v-12.117h-35.157v12.458c6.656-3.072 11.349-4.864 17.834-4.864 6.23 0 12.203 1.622 17.323 4.523z m-35.157 60.33v9.985h35.157v-9.728c-5.12 2.901-11.093 4.522-17.323 4.522-6.485 0.086-11.178-1.706-17.834-4.778z" fill="#FFFFFF" p-id="8693"></path><path d="M516.181 653.568l228.182 153.856v-308.48L516.18 653.568z m179.712 27.136v19.115c0 1.706 0.342 1.28-1.365 1.28h-41.216c-1.707 0-4.779 0.426-4.779-1.28v-19.627c-6.144-6.315-10.837-15.275-10.837-25.259 0-9.898 4.693-18.858 10.837-25.258v-18.603c0-1.707 3.072-4.779 4.779-4.779h41.216c1.707 0 1.365 3.072 1.365 4.779v18.09c8.363 6.4 11.35 15.531 11.35 25.686s-2.987 19.456-11.35 25.856z" fill="#FFFFFF" p-id="8694"></path><path d="M690.773 652.63h-15.189c-0.085 0-0.085 0-0.17 0.085v6.144c0 0.085 0.085 0.17 0.17 0.17h15.19c0.085 0 0.17-0.085 0.17-0.17V652.8a0.184 0.184 0 0 0-0.17-0.17z m-658.176-1.707L260.78 804.779v-308.48L32.597 650.923z m135.168 26.453h-31.744l-2.901-2.39h38.144l-3.499 2.39z m49.408-4.693h-6.485s-0.597-34.646-5.888-38.742c0 0 9.387-5.888 15.872-2.389 0 0-4.693 25.856-3.499 41.13z m5.206-45.227s-16.47-0.597-28.758 10.581c-12.373 11.179-15.274 26.454-15.274 26.454s-0.598 7.082-11.179 7.082h-35.84s9.984-8.789 17.579-12.373c7.594-2.901 8.192 1.195 14.08-5.888 5.973-7.083 51.2-61.099 51.2-61.099s18.773 5.888 8.192 35.243z m291.498-318.293L742.06 463.019V154.624L513.877 309.163z m191.744-19.627c0 15.53-12.373 29.44-27.05 30.635v25.685h17.749c1.536 0 2.816 1.28 2.816 2.816 0 1.536-1.28 2.816-2.816 2.816h-41.301c-1.536 0-2.816-1.28-2.816-2.816 0-1.536 1.28-2.816 2.816-2.816h17.749v-25.77c-14.592-1.366-27.05-15.19-27.05-30.635v-27.904c0-1.536 1.45-2.56 2.986-2.56h54.101c1.536 0 2.646 0.938 2.646 2.56v27.989zM124.075 434.688c-1.707-1.792-3.67-3.157-5.974-4.181a17.964 17.964 0 0 0-7.338-1.536c-2.646 0-5.035 0.512-7.339 1.536-2.304 1.024-4.267 2.389-5.973 4.181-1.707 1.792-3.072 3.84-4.011 6.144s-1.45 4.864-1.45 7.51v6.655c2.645 0.598 5.546 1.11 8.789 1.536 3.242 0.427 6.57 0.683 9.984 0.683 3.413 0 6.741-0.256 9.984-0.683 3.242-0.426 6.229-0.938 8.874-1.536v-6.656c0-2.645-0.512-5.205-1.45-7.509a21.491 21.491 0 0 0-4.096-6.144z" fill="#FFFFFF" p-id="8695"></path><path d="M35.755 325.973v300.288l222.122-149.76L35.755 325.973zM147.2 500.651c-1.195 1.024-2.645 1.877-4.437 2.56-1.792 0.768-3.755 1.109-6.059 1.109H84.821c-2.389 0-4.437-0.341-6.144-1.11-1.792-0.767-3.242-1.62-4.437-2.56-1.195-1.023-2.133-2.047-2.645-3.071s-0.854-1.963-0.854-2.56l7.083-37.718c0-1.365 0.427-2.474 1.365-3.328 0.939-0.938 2.048-1.365 3.328-1.365 0.342 0.085 0.768 0.256 1.28 0.427 0.427 0.085 0.939 0.256 1.536 0.426l1.963 0.598v-6.23c0-3.242 0.597-6.229 1.877-9.045 1.195-2.816 2.902-5.376 5.035-7.424 2.133-2.133 4.608-3.755 7.51-5.035a23.29 23.29 0 0 1 9.13-1.877c3.243 0 6.315 0.597 9.13 1.877a23.709 23.709 0 0 1 7.51 5.035c2.133 2.133 3.84 4.608 5.035 7.424 1.194 2.816 1.877 5.888 1.877 9.045v6.23l1.963-0.598c0.597-0.17 1.109-0.256 1.536-0.426 0.512-0.171 0.938-0.256 1.28-0.427 1.365 0 2.474 0.427 3.328 1.365 0.938 0.939 1.365 2.048 1.365 3.328l7.083 37.718c0 0.682-0.256 1.536-0.854 2.56-0.853 1.024-1.706 2.048-2.901 3.072zM512.939 669.952V970.24L735.06 820.48 512.94 669.952z m79.274 197.29h-32.426a7.92 7.92 0 0 1-7.936-7.935l2.816-49.494c0-4.01 3.242-7.424 7.253-7.765-0.939-1.536-1.45-3.413-1.45-5.376v-1.877c0-5.12 3.669-9.472 8.447-10.582a7.108 7.108 0 0 1-0.256-1.877v-2.39c0-4.01 3.243-7.253 7.254-7.253s7.253 3.243 7.253 7.254v2.389c0 0.683-0.085 1.28-0.256 1.877 4.864 1.11 8.448 5.376 8.448 10.582v1.877c0 1.877-0.512 3.755-1.45 5.376 4.095 0.341 7.253 3.755 7.253 7.936l2.816 49.152c0.256 4.523-3.328 8.107-7.766 8.107z" fill="#FFFFFF" p-id="8696"></path><path d="M576 778.41a1.62 1.62 0 0 0-1.621 1.622v2.39a1.62 1.62 0 0 0 1.621 1.62h0.085c0.854 0 1.622-0.767 1.622-1.62v-2.39c0-0.939-0.768-1.621-1.707-1.621zM874.07 655.36h-3.585v16.043c-0.17 2.474-0.853 4.864-1.792 7.082h5.376a5.354 5.354 0 0 0 5.376-5.376v-12.458c-0.085-2.902-2.474-5.291-5.376-5.291z" fill="#FFFFFF" p-id="8697"></path><path d="M758.016 496.299v308.48l228.181-153.856-228.181-154.624z m94.635 118.698l3.584-6.912h5.376v4.608h-3.584a5.248 5.248 0 0 0 0 2.304h1.792l3.584 4.608a11.92 11.92 0 0 1 0 6.912l-3.584 6.912h-5.376v-4.608h3.584c0.17-0.768 0.17-1.536 0-2.304h-1.792l-3.584-4.608a11.92 11.92 0 0 1 0-6.912z m-24.918-9.216l3.584-9.216h7.083v6.912h-5.376a6.149 6.149 0 0 0 0 4.608h3.584l5.376 4.608c1.45 2.731 2.048 5.974 1.792 9.216l-5.376 9.216h-7.083v-6.912h3.584a6.149 6.149 0 0 0 0-4.608h-1.792l-3.584-4.608a17.706 17.706 0 0 1-1.792-9.216z m-23.125 9.216l3.584-6.912h5.376v4.608h-3.584a5.248 5.248 0 0 0 0 2.304h3.584l3.584 4.608a11.92 11.92 0 0 1 0 6.912l-3.584 6.912h-5.376v-4.608h3.584c0.17-0.768 0.17-1.536 0-2.304h-1.792l-5.376-4.608a11.92 11.92 0 0 1 0-6.912z m69.461 70.656h-8.874c-4.267 5.462-10.838 8.79-17.835 8.875h-24.917c-12.8 0-23.126-10.325-23.126-23.125V637.61h71.254v10.666h3.584a12.419 12.419 0 0 1 12.458 12.459v12.459c-0.085 6.826-5.717 12.458-12.544 12.458z" fill="#FFFFFF" p-id="8698"></path></svg>