<?xml version="1.0" standalone="no"?><!DOCTYPE svg PUBLIC "-//W3C//DTD SVG 1.1//EN" "http://www.w3.org/Graphics/SVG/1.1/DTD/svg11.dtd"><svg t="1584799312323" class="icon" viewBox="0 0 1024 1024" version="1.1" xmlns="http://www.w3.org/2000/svg" p-id="10748" xmlns:xlink="http://www.w3.org/1999/xlink" width="200" height="200"><defs><style type="text/css"></style></defs><path d="M941.248 750.928C934.912 673.76 894.24 587.68 877.28 544.64l-43.408-111.168c-1.376-46.32 12.4-152.56-59.808-285.792C701.728 14.464 556.752 2.4 529.888 1.024c-26.736-1.104-194.448-2.464-276.864 142.4C170.752 288.48 192.8 433.632 192.8 433.632l-45.888 112.112s-21.504 51.136-39.968 113.232C88.208 721.184 70.016 819.04 88.208 838.8c18.736 20 85.712-91.04 91.92-101.024 0 0 4.816 52.896 17.36 80.592 10.336 22.08 34.72 77.44 84.064 120.752-23.712 7.68-80.752 28.24-89.024 49.216-10.48 26.992 8.128 30.016 40.368 31.792 31.984 1.792 186.048 5.904 259.776-4.24 0.688-0.288 1.648-0.288 2.352-0.416 7.296 0.272 14.192 0.416 20.256 0.416 4.128 0 8.8 0 14.192-0.288 0.688 0 0.96 0.288 1.648 0.288 73.728 10.4 227.808 6.304 259.776 4.24 31.968-1.776 50.848-4.928 40.368-31.792-8.4-21.52-67.104-42.224-90.128-49.488 7.456-6.448 14.48-13.28 20.96-20.704 83.088-91.008 76.208-148.16 79.648-181.2 0 0 70 100.48 85.024 103.76 15.84 3.296 20.544-12.608 14.48-89.776z" fill="#FFFFFF" p-id="10749"></path><path d="M324.128 968.176a230.448 230.448 0 0 1-42.032-29.744c-23.696 7.824-80.752 28.24-89.024 49.216-10.464 26.992 8.128 30.016 40.384 31.792 31.968 1.792 186.048 5.904 259.776-4.24 0.688-0.272 1.648-0.272 2.336-0.416a363.312 363.312 0 0 1-171.44-46.608z m417.28-29.744c-73.024 64.56-163.008 75.392-211.52 76.896 0.688 0 0.96 0.272 1.648 0.272 73.728 10.416 227.792 6.304 259.776 4.256 31.968-1.776 50.848-4.928 40.368-31.808-8.544-21.792-67.248-42.352-90.256-49.6z" fill="#E5A627" p-id="10750"></path><path d="M877.168 544.368l-43.408-111.312s-297.808 93.76-640.816 0L147.04 545.184s62.976 22.208 164.128 38.112v150.768s80.336 10.976 140.832 3.424v-139.52c122.8 6.72 271.76-3.04 425.152-53.6z" fill="#CE2D22" p-id="10751"></path><path d="M774.08 147.552C702 14.592 557.024 2.528 530.16 1.152c-26.736-1.36-194.448-2.72-276.864 142.288C170.896 288.592 193.072 433.6 193.072 433.6c344.384 95.52 640.816 0 640.816 0-1.52-46.608 12.544-153.12-59.808-286.08z m-345.632 144.064c-31.28 0-56.352-36.064-56.352-80.608 0-44.4 25.36-80.592 56.352-80.592 31.296 0 56.368 36.048 56.368 80.592s-25.072 80.608-56.368 80.608z m168.272 0c-31.28 0-56.368-36.064-56.368-80.608 0-44.4 25.36-80.592 56.368-80.592 31.28 0 56.368 36.048 56.368 80.592s-25.36 80.608-56.368 80.608z" fill="#070001" p-id="10752"></path><path d="M420.736 217.6c0 17.68 11.04 32.208 24.4 32.208 13.504 0 24.384-14.256 24.384-32.208 0-17.968-11.024-32.224-24.384-32.224-13.376 0.144-24.4 14.528-24.4 32.224z m175.984-20.16c16.256 0 38.592 8.368 33.76 21.52-3.84 10.416-23.008-3.424-29.904-4.512-8.672-1.104-21.488-2.064-31.968 10.688-7.04 8.352-18.048 7.392-14.192-4.112 4.4-12.896 20.8-23.584 42.304-23.584z" fill="#070001" p-id="10753"></path><path d="M317.376 359.328c0 13.568 101.712 64.272 194.88 63.6 93.152-0.688 196.912-50.864 196.912-65.52 0-14.528-74.688-40.448-198.848-40.448-124.032-0.128-192.944 22.352-192.944 42.368z" fill="#E5A627" p-id="10754"></path><path d="M941.248 750.928C934.912 673.76 894.24 587.68 877.28 544.64a1134.512 1134.512 0 0 1-119.344 31.792c3.456 17.28 7.856 54.976 6.208 126.928-2.752 107.328-37.904 194.784-124.448 245.36-86.544 50.576-238.544 39.472-304.832-43.184-62.56-77.584-82.816-135.552-67.792-329.648-75.248-14.8-120.032-30.432-120.032-30.432s-21.504 51.136-39.968 113.216C88.32 720.912 70.144 818.768 88.32 838.512c18.752 20 85.856-91.008 91.92-101.024 0 0 4.832 52.912 17.376 80.608 12.528 27.68 47.68 107.312 126.24 150.496 78.4 43.04 145.104 47.152 191.824 47.152s163.712-6.848 246.672-97.872c82.96-91.008 76.208-148.16 79.648-181.2 0 0 70.016 100.48 85.04 103.76 15.568 3.568 20.256-12.336 14.192-89.504z" fill="#070001" p-id="10755"></path></svg>