<?xml version="1.0" standalone="no"?><!DOCTYPE svg PUBLIC "-//W3C//DTD SVG 1.1//EN" "http://www.w3.org/Graphics/SVG/1.1/DTD/svg11.dtd"><svg t="1584799110017" class="icon" viewBox="0 0 1109 1024" version="1.1" xmlns="http://www.w3.org/2000/svg" p-id="5680" xmlns:xlink="http://www.w3.org/1999/xlink" width="216.6015625" height="200"><defs><style type="text/css"></style></defs><path d="M1082.88 837.973333V186.026667C1082.88 83.626667 999.253333 0 896.853333 0H244.906667C142.592 0 58.88 83.712 58.88 186.026667v651.946666c0 101.290667 82.090667 184.32 183.04 186.026667h657.92a186.538667 186.538667 0 0 0 183.04-186.026667zM211.797333 259.242667a65.450667 65.450667 0 0 1 15.701334-22.698667 65.28 65.28 0 0 1 23.210666-16.042667 79.786667 79.786667 0 0 1 57.173334 0c9.130667 3.584 17.066667 8.96 23.808 16.042667a65.706667 65.706667 0 0 1 15.616 22.698667 71.253333 71.253333 0 0 1 0 56.064 65.194667 65.194667 0 0 1-15.616 22.698666 83.626667 83.626667 0 0 1-23.893334 15.36 71.68 71.68 0 0 1-57.173333 0 85.930667 85.930667 0 0 1-23.125333-15.36 65.024 65.024 0 0 1-15.701334-22.698666 71.168 71.168 0 0 1 0-56.064z m141.824 313.6c-3.754667 22.272-11.946667 45.824-24.490666 70.826666a589.226667 589.226667 0 0 0-23.210667 50.005334c-5.973333 14.933333-12.117333 29.866667-18.176 44.714666-5.717333 13.653333-11.349333 27.392-16.896 41.216-5.546667 13.397333-11.093333 26.709333-16.981333 40.021334a3609.258667 3609.258667 0 0 1-57.685334-45.397334c-9.472-7.253333-18.944-14.592-28.245333-22.016a771.413333 771.413333 0 0 0-29.525333-22.016c10.922667-8.96 22.016-17.578667 33.28-26.026666l33.28-24.746667c10.666667-8.704 21.333333-17.578667 31.914666-26.624 10.496-8.874667 19.882667-18.261333 28.245334-27.989333 17.578667-18.773333 26.453333-36.522667 26.453333-53.418667s-5.12-32.938667-15.104-48.042667a199.509333 199.509333 0 0 0-44.629333-43.349333 650.752 650.752 0 0 0-60.842667-39.424l12.544-15.36c4.181333-4.864 8.362667-9.984 12.544-15.36a443.818667 443.818667 0 0 1 26.368-30.72c35.157333 21.418667 62.805333 42.752 82.858667 64.170667 20.053333 21.333333 33.877333 42.666667 41.386666 64 8.362667 21.333333 10.666667 43.178667 6.912 65.450666v0.085334z m588.117334-29.354667c-0.853333 24.917333-2.133333 49.152-3.754667 72.789333-1.706667 23.552-4.266667 47.36-7.594667 71.338667a216.746667 216.746667 0 0 1-16.213333 64.085333 98.133333 98.133333 0 0 1-29.013333 37.376 88.576 88.576 0 0 1-38.229334 18.005334 225.28 225.28 0 0 1-47.018666 4.693333 516.266667 516.266667 0 0 1-37.034667 1.28h-35.84c-12.544 0-24.832-0.170667-37.034667-0.597333a1029.12 1029.12 0 0 0-37.034666-0.682667c0-3.584-0.170667-7.338667-0.597334-11.349333a106.325333 106.325333 0 0 1-0.597333-11.349334 64.853333 64.853333 0 0 1-1.28-11.946666 67.413333 67.413333 0 0 0-1.28-12.117334h22.613333a196.266667 196.266667 0 0 1 22.613334 1.365334h23.893333c7.509333 0 15.018667-0.426667 22.528-1.365334 15.104-0.853333 28.245333-3.072 39.594667-6.656a64.512 64.512 0 0 0 28.16-17.322666 75.946667 75.946667 0 0 0 17.066666-32 184.32 184.32 0 0 0 5.546667-49.493334l3.754667-152.064c0.853333-20.650667 1.28-41.386667 1.28-62.037333 0-20.906667-2.048-40.277333-6.229334-58.026667a120.405333 120.405333 0 0 0-23.296-45.397333c-10.410667-12.458667-25.685333-20.906667-45.738666-25.429333a174.08 174.08 0 0 0-45.226667-4.608 575.402667 575.402667 0 0 0-46.421333 3.328c-15.104 0.853333-30.208 2.474667-45.226667 4.608a505.685333 505.685333 0 0 1-46.421333 4.693333 28.757333 28.757333 0 0 0-8.192 1.365333 32.085333 32.085333 0 0 1-9.386667 1.28 250.965333 250.965333 0 0 1-17.578667 5.376l47.701334 38.741334-38.912 38.656h240.981333V460.8H649.216v58.709333h143.104v41.386667H649.216v102.741333c5.888-1.706667 11.52-3.413333 16.981333-4.693333 5.461333-1.365333 11.093333-2.474667 16.896-3.328 5.888-1.706667 11.52-3.072 17.066667-4.010667 5.376-0.853333 11.008-2.218667 16.896-4.010666a35.498667 35.498667 0 0 1-6.314667-9.386667 36.181333 36.181333 0 0 0-6.314666-9.301333 80.64 80.64 0 0 0-5.632-9.984 73.216 73.216 0 0 1-5.632-10.069334l13.226666-5.290666c4.522667-1.706667 9.386667-4.010667 14.421334-6.656 4.181333-1.792 8.789333-3.584 13.824-5.376 4.949333-1.706667 9.557333-3.498667 13.738666-5.290667 10.922667 7.082667 20.138667 14.848 27.648 23.296 7.509333 8.533333 13.397333 17.578667 17.578667 27.306667a110.933333 110.933333 0 0 1 8.192 30.72c1.194667 10.752 0.597333 22.272-1.877333 34.730666a351.317333 351.317333 0 0 1-25.173334 24.064 122.026667 122.026667 0 0 0-13.738666 11.349334c-4.266667 4.010667-8.448 7.765333-12.629334 11.349333a77.568 77.568 0 0 1-6.826666-12.032 209.578667 209.578667 0 0 0-6.912-13.312 77.482667 77.482667 0 0 1-6.912-12.032 210.602667 210.602667 0 0 0-6.912-13.397333c-65.28 25.856-121.173333 43.008-167.594667 51.456-46.421333 8.448-83.456 8.618667-111.104 0.597333-27.648-8.874667-45.653333-25.770667-53.930667-50.688-8.448-24.917333-7.168-58.709333 3.754667-101.461333H487.253333c0 16.981333 0.853333 30.549333 2.56 40.704a79.36 79.36 0 0 0 7.424 24.746666 34.304 34.304 0 0 0 15.104 11.349334 84.906667 84.906667 0 0 0 21.333334 4.608h5.034666V560.810667H396.970667v-40.021334h141.824v-61.44H511.146667V451.413333l-58.965334 60.074667-51.456-26.709333 99.157334-136.106667a187.562667 187.562667 0 0 0-30.72 15.957333 417.024 417.024 0 0 0-28.330667 20.053334 302.08 302.08 0 0 0-45.226667 48.042666 153.6 153.6 0 0 1-2.474666 7.338667l-2.474667 7.338667a87.04 87.04 0 0 1-3.157333 5.973333 37.290667 37.290667 0 0 0-3.157334 7.338667 937.984 937.984 0 0 1-18.773333-15.36 221.696 221.696 0 0 0-18.858667-13.994667 1978.282667 1978.282667 0 0 1-37.632-29.354667c9.984-16.810667 20.224-33.536 30.72-50.005333 10.496-16.554667 20.736-33.28 30.72-50.090667l30.805334-48.64c10.496-16.554667 20.736-33.28 30.72-50.090666 8.618667 2.730667 17.237333 5.632 25.770666 8.704 8.533333 2.986667 17.066667 5.973333 25.770667 8.618666 8.533333 2.816 17.152 5.717333 25.685333 8.704 8.533333 3.072 17.066667 5.973333 25.770667 8.704-2.56 5.290667-4.608 10.410667-6.314667 15.36a83.370667 83.370667 0 0 1-6.314666 13.994667c-1.706667 5.290667-3.498667 10.496-5.632 15.36a331.690667 331.690667 0 0 0-5.632 13.994667c40.106667-19.626667 84.48-34.048 133.12-43.349334a436.053333 436.053333 0 0 1 136.789333-5.973333c41.813333 4.352 77.653333 17.749333 107.349333 39.936 29.696 22.272 46.165333 55.210667 49.493334 98.816 2.56 28.501333 4.010667 55.637333 4.437333 81.408 0.426667 25.770667 0.256 51.2-0.597333 76.032z" fill="#FF5500" p-id="5681"></path></svg>