<?xml version="1.0" standalone="no"?><!DOCTYPE svg PUBLIC "-//W3C//DTD SVG 1.1//EN" "http://www.w3.org/Graphics/SVG/1.1/DTD/svg11.dtd"><svg t="1584875465637" class="icon" viewBox="0 0 1024 1024" version="1.1" xmlns="http://www.w3.org/2000/svg" p-id="2768" xmlns:xlink="http://www.w3.org/1999/xlink" width="200" height="200"><defs><style type="text/css"></style></defs><path d="M182.044444 3.982222h659.911112c98.417778 0 178.062222 79.644444 178.062222 178.062222v659.911112c0 98.417778-79.644444 178.062222-178.062222 178.062222H182.044444C83.626667 1020.017778 3.982222 940.373333 3.982222 841.955556V182.044444C3.982222 83.626667 83.626667 3.982222 182.044444 3.982222z" fill="#FFFFFF" p-id="2769"></path><path d="M841.955556 1024H182.044444c-100.693333 0-182.044444-81.92-182.044444-182.044444V182.044444C0 81.351111 81.351111 0 182.044444 0h659.911112c100.693333 0 182.044444 81.351111 182.044444 182.044444v659.911112c0 100.124444-81.351111 182.044444-182.044444 182.044444zM182.044444 7.964444C85.902222 7.964444 7.964444 85.902222 7.964444 182.044444v659.911112c0 96.142222 77.937778 174.648889 174.648889 174.648888h659.911111c96.142222 0 174.08-77.937778 174.648889-174.648888V182.044444c0-96.142222-77.937778-174.08-174.648889-174.648888L182.044444 7.964444z" fill="#DBDCDC" p-id="2770"></path><path d="M208.782222 291.84l65.422222-97.848889 27.875556 35.271111L341.333333 164.977778l61.44 114.915555V156.444444H141.653333v172.942223h261.12v-37.546667H208.782222z m-36.977778-100.124444c0-9.102222 5.688889-17.066667 13.653334-21.048889s18.204444-1.706667 24.462222 5.12c6.257778 6.257778 8.533333 15.928889 5.12 24.462222s-11.946667 13.653333-21.048889 13.653333c-12.515556 0-22.186667-9.671111-22.186667-22.186666z m515.982223-35.271112h195.128889v28.444445h-195.128889v-28.444445z m0 54.613334h195.128889v28.444444h-195.128889v-28.444444z m0-108.657778h195.128889v28.444444h-195.128889v-28.444444z m-253.724445 54.044444h221.297778v28.444445H434.062222v-28.444445z m0 54.613334h221.297778v28.444444H434.062222v-28.444444z m0-108.657778h221.297778v28.444444H434.062222v-28.444444zM141.084444 838.542222h514.275556v28.444445H141.084444v-28.444445z m0 54.613334h514.275556v28.444444H141.084444v-28.444444z m0-108.657778h514.275556v28.444444H141.084444v-28.444444z m546.702223 54.044444h195.128889v28.444445h-195.128889v-28.444445z m0 54.613334h195.128889v28.444444h-195.128889v-28.444444z m0-108.657778h195.128889v28.444444h-195.128889v-28.444444zM158.151111 102.4h4.551111c1.137778 0 2.844444 0.568889 3.982222 1.706667 1.137778 0.568889 1.706667 1.706667 2.275556 2.844444 0.568889 1.137778 1.137778 2.844444 0.568889 3.982222 0 1.706667-0.568889 3.413333-1.137778 4.551111-1.137778 1.137778-2.275556 2.275556-3.982222 2.844445 2.275556 0.568889 3.982222 1.706667 5.12 3.413333 2.275556 3.413333 2.844444 7.395556 1.137778 10.808889-0.568889 1.137778-1.706667 2.275556-2.844445 3.413333-1.137778 1.137778-2.844444 1.706667-3.982222 1.706667-1.706667 0.568889-2.844444 0.568889-4.551111 0.568889h-18.204445V102.4h17.066667z m-1.137778 14.222222c1.137778 0 2.275556-0.568889 3.413334-1.137778 1.137778-0.568889 1.706667-2.275556 1.137777-3.413333v-2.275555c-0.568889-0.568889-0.568889-1.137778-1.137777-1.137778-0.568889-0.568889-1.137778-0.568889-1.706667-0.568889h-9.671111v8.533333h7.964444z m0 15.928889h2.275556c0.568889 0 1.137778-0.568889 1.706667-0.568889 0.568889-0.568889 1.137778-1.137778 1.137777-1.706666 0.568889-0.568889 0.568889-1.706667 0.568889-2.275556 0-1.706667-0.568889-2.844444-1.706666-3.982222-1.137778-1.137778-2.844444-1.137778-3.982223-1.137778h-8.533333v10.24l8.533333-0.568889z m27.306667 13.084445c-1.706667 1.137778-3.982222 1.706667-5.688889 1.137777h-4.551111v-6.257777h3.982222c0.568889 0 1.706667-0.568889 2.275556-1.137778 0.568889-0.568889 0.568889-1.137778 0.568889-2.275556v-1.706666l-9.102223-24.462223h7.964445l5.688889 18.204445 5.12-17.635556h7.395555l-10.808889 29.582222c-0.568889 1.706667-1.137778 3.413333-2.844444 4.551112z m36.408889-34.133334l-3.413333 4.551111h-5.12v13.653334c0 0.568889 0 1.706667 0.568888 2.275555 0.568889 0.568889 1.706667 1.137778 2.275556 0.568889h2.275556v5.688889H209.92c-1.137778 0-1.706667-0.568889-2.844444-1.137778-0.568889-0.568889-1.706667-1.137778-1.706667-1.706666-0.568889-1.137778-0.568889-2.275556-0.568889-3.413334v-15.928889h-4.551111v-4.551111h4.551111v-3.982222l7.395556-3.413333v7.395555h8.533333z m46.08-9.102222c2.275556 0 4.551111 0.568889 6.257778 1.137778 1.706667 0.568889 3.982222 1.706667 5.12 3.413333 1.706667 1.706667 2.844444 3.413333 3.413333 5.688889 1.137778 2.275556 1.137778 5.12 1.137778 7.964444 0 2.275556-0.568889 5.12-1.137778 7.395556s-1.706667 3.982222-2.844444 5.688889c-1.137778 1.706667-2.844444 2.844444-5.12 3.982222-2.275556 1.137778-4.551111 1.706667-7.395556 1.137778H250.311111V102.4h16.497778z m0 29.582222h3.413333c1.137778-0.568889 2.275556-1.137778 2.844445-1.706666 1.137778-1.137778 1.706667-2.275556 2.275555-3.413334 0.568889-1.706667 0.568889-3.413333 0.568889-5.12 0-1.706667 0-3.413333-0.568889-5.12 0-1.137778-1.137778-2.844444-1.706666-3.982222-0.568889-1.137778-1.706667-1.706667-3.413334-2.275556-1.706667-0.568889-3.413333-1.137778-5.12-0.568888h-5.688889v22.755555l7.395556-0.568889z m97.848889-3.982222c-0.568889 2.844444-2.844444 4.551111-5.688889 5.12-5.688889 0-6.257778-7.395556-6.257778-7.395556v-1.706666s0-7.395556 6.257778-7.395556c2.844444 0 5.12 2.275556 5.688889 5.12h6.826666c-1.137778-5.688889-6.257778-10.24-12.515555-10.24-6.826667 0-12.515556 5.12-13.084445 11.946667v3.982222c0.568889 6.826667 6.257778 11.946667 13.084445 11.946667 6.257778 0 11.377778-3.982222 12.515555-10.24l-6.826666-1.137778z m32.426666-1.706667h3.413334v-3.413333c0-6.826667-5.688889-12.515556-13.084445-12.515556-6.826667 0-12.515556 5.12-13.084444 11.946667v3.982222c0.568889 6.826667 6.257778 11.946667 13.084444 11.946667 5.688889 0 10.808889-3.413333 12.515556-8.533333H392.533333c-1.137778 1.706667-2.844444 3.413333-5.12 3.413333-4.551111 0-5.688889-4.551111-5.688889-6.826667h15.36z m-9.671111-9.671111c3.982222 0 5.12 3.413333 5.688889 5.688889h-10.808889c0.568889-2.844444 1.706667-5.688889 5.12-5.688889z m-143.928889 9.671111h3.413334v-3.413333c0-6.826667-5.688889-12.515556-13.084445-12.515556-6.826667 0-12.515556 5.12-12.515555 11.946667v3.982222c0.568889 6.826667 6.257778 11.946667 12.515555 11.946667 5.688889 0 10.808889-3.413333 11.946667-8.533333h-7.395556c-0.568889 2.275556-2.844444 3.413333-5.12 3.413333-4.551111 0-5.688889-4.551111-5.688888-6.826667h15.928888z m-9.671111-9.671111c2.844444 0 5.12 2.844444 5.688889 5.688889h-10.808889c0.568889-2.844444 2.275556-5.688889 5.12-5.688889z m79.075556-4.551111h-7.964445c-1.706667-0.568889-3.413333-1.137778-5.688888-1.137778-6.826667 0-12.515556 5.12-12.515556 11.946667v3.982222c0.568889 6.826667 5.688889 11.946667 12.515556 11.946667 2.275556 0 4.551111-0.568889 6.826666-1.706667l6.257778 1.706667v-26.737778z m-13.084445 21.048889c-5.688889 0-5.688889-7.395556-5.688888-7.395556v-1.706666s0-7.395556 5.688888-7.395556 5.688889 7.395556 5.688889 7.395556v1.706666c0.568889 0 0 7.395556-5.688889 7.395556z m42.097778-14.222222c-0.568889-4.551111-3.982222-7.964444-8.533333-7.964445-3.413333 0-6.257778 1.137778-8.533333 3.413334l-7.395556-2.275556v26.737778h7.395556v-15.36c0-7.395556 6.257778-6.826667 6.257777-6.826667 4.551111 0 3.982222 6.257778 3.982223 6.257778v15.928889h7.395555v-15.928889c-0.568889-2.275556-0.568889-3.982222-0.568889-3.982222z" fill="#DBDCDC" p-id="2771"></path><path d="M0 220.16V841.955556c0 5.12 0 10.808889 0.568889 15.928888L1024 799.857778V182.044444c0-5.12 0-10.808889-0.568889-15.928888L0 220.16z" fill="#E62318" p-id="2772"></path><path d="M915.342222 577.991111v-48.355555l-153.6 8.533333v-24.462222l-73.955555 3.982222v24.462222l-153.6 8.533333v48.355556l153.6-8.533333v106.951111l73.955555-3.982222v-106.951112l153.6-8.533333z" fill="#FFFFFF" p-id="2773"></path><path d="M534.186667 488.675556v48.355555l52.906666-2.844444 135.964445-67.128889 138.808889 51.2 53.475555-2.844445v-48.355555l-35.271111 2.275555-91.591111-33.564444L910.222222 376.035556V291.271111l-73.955555 3.982222-170.666667 9.671111-59.164444-27.875555-75.662223 119.466667 62.577778 22.755555 40.391111-63.715555 201.955556-11.377778v11.946666l-112.64 55.182223-87.608889-32.426667-29.582222 44.942222 51.768889 19.342222-88.746667 43.804445-34.702222 1.706667z m341.333333 105.813333l-73.955556 3.982222 54.044445 89.884445 73.955555-3.982223-54.044444-89.884444zM534.755556 707.128889l73.955555-3.982222 49.493333-95.573334-73.955555 3.982223-49.493333 95.573333z m-175.786667-109.226667l58.595555 114.915556 81.92-3.982222-58.595555-114.915556-81.92 3.982222zM282.168889 514.275556L222.435556 438.613333l-81.351112 4.551111 59.733334 75.093334 81.351111-3.982222z m0-94.435556L222.435556 344.746667l-81.351112 4.551111 59.733334 75.662222 81.351111-5.12z" fill="#FFFFFF" p-id="2774"></path><path d="M352.711111 584.817778l136.533333-7.964445v-48.355555l-91.022222 5.12V320.284444L324.266667 324.266667v213.333333l-216.177778 12.515556v48.355555l150.186667-8.533333-66.56 87.608889-81.351112 5.12v48.355555l137.102223-7.964444L352.711111 584.817778z" fill="#FFFFFF" p-id="2775"></path></svg>