<?xml version="1.0" standalone="no"?><!DOCTYPE svg PUBLIC "-//W3C//DTD SVG 1.1//EN" "http://www.w3.org/Graphics/SVG/1.1/DTD/svg11.dtd"><svg t="1584799085627" class="icon" viewBox="0 0 1024 1024" version="1.1" xmlns="http://www.w3.org/2000/svg" p-id="4203" xmlns:xlink="http://www.w3.org/1999/xlink" width="200" height="200"><defs><style type="text/css"></style></defs><path d="M860.800204 1023.92192H163.098676a162.431797 162.431797 0 0 1-163.071796-163.071796V163.071796A162.431797 162.431797 0 0 1 163.073076 0.0256h697.701528a162.431797 162.431797 0 0 1 163.122996 163.071796V860.850124C1026.918396 951.474011 951.424091 1023.92192 860.800204 1023.92192" fill="#6BC839" p-id="4204"></path><path d="M317.133684 383.589921c-21.145574 0-39.270351-12.083185-39.270351-33.228759 0-21.145574 21.145574-33.228758 39.270351-33.228758 18.124777 0 33.228758 12.083185 33.228758 33.228758 0 21.145574-15.103981 33.228758-33.228758 33.228759m187.263766-66.457517c21.145574 0 33.228758 12.083185 33.228758 33.228758 0 21.145574-12.083185 33.228758-33.228758 33.228759-21.145574 0-39.270351-12.083185-39.270351-33.228759-3.020796-21.145574 18.124777-33.228758 39.270351-33.228758m141.951822 72.499109c9.062389 0 18.124777 0 27.187166 3.020796-24.16637-108.748664-138.931026-187.263766-268.799664-187.263766-148.019015 0-265.804468 99.686275-265.804468 226.534117 0 72.499109 39.270351 132.889434 105.727868 181.222174l-27.212766 81.535898 93.644683-48.30714c33.228758 6.041592 60.415924 12.057585 93.619083 12.057585h24.16637a175.82058 175.82058 0 0 1-9.062389-57.369528c0-117.785453 99.686275-211.430136 226.559717-211.430136" fill="#FFFFFF" p-id="4205"></path><path d="M736.973159 564.812094c-12.083185 0-27.187166-12.083185-27.187166-27.187166 0-12.083185 12.083185-27.187166 27.187166-27.187166 21.145574 0 33.228758 12.083185 33.228758 27.187166 0 15.103981-12.083185 27.187166-33.228758 27.187166m-147.967815 0c-12.108785 0-27.212766-12.083185-27.212766-27.187166 0-12.083185 12.083185-27.187166 27.187166-27.187166 21.119974 0 33.228758 12.083185 33.228758 27.187166 0 15.103981-12.108785 27.187166-33.228758 27.187166m302.028422 33.228758c0-105.727868-105.702268-193.279758-226.534117-193.279758-126.847841 0-226.534117 87.551891-226.534116 193.279758s99.686275 193.305358 226.559716 193.305359c27.161566 0 54.348732-6.067192 81.535898-12.083185l72.49911 39.244751-21.171174-66.457517c54.374332-39.244751 93.644683-93.619083 93.644683-154.009408" fill="#FFFFFF" p-id="4206"></path></svg>