<?xml version="1.0" standalone="no"?><!DOCTYPE svg PUBLIC "-//W3C//DTD SVG 1.1//EN" "http://www.w3.org/Graphics/SVG/1.1/DTD/svg11.dtd"><svg t="1584799520650" class="icon" viewBox="0 0 1024 1024" version="1.1" xmlns="http://www.w3.org/2000/svg" p-id="14441" xmlns:xlink="http://www.w3.org/1999/xlink" width="200" height="200"><defs><style type="text/css"></style></defs><path d="M204.8 0h614.4C932.311 0 1024 91.689 1024 204.8v614.4c0 113.111-91.689 204.8-204.8 204.8H204.8C91.689 1024 0 932.311 0 819.2V204.8C0 91.689 91.689 0 204.8 0z m104.479 595.2c-13.118-9.933-27.925-16.896-43.162-23.02-31.099-12.247-63.672-16.68-96.88-15.83-7.834 0-15.657 0.634-23.696 1.054 0-0.635-0.635-1.474-0.635-2.53-2.12-23.654-4.659-47.298-6.349-70.522-1.474-19.425-2.109-38.85-2.54-58.266-0.634-37.376-0.634-74.537-0.634-111.902 0-8.868-0.635-7.813-7.403-4.864-20.941 8.448-41.677 16.69-62.618 24.709-0.635 0.635-1.69 2.744-1.27 3.789 6.349 23.654 11.008 47.933 14.183 72.007 3.174 20.9 5.918 41.165 8.878 61.645 2.54 17.95 4.229 35.891 6.348 54.057 2.12 18.36 4.66 36.73 6.77 55.317 2.119 17.735 4.228 34.836 6.348 52.572a1179.74 1179.74 0 0 1 3.81 37.785c0.634 9.933 1.474 19.845 1.689 29.348 0 2.11 0.635 3.175 2.754 3.175 4.65 0 8.878 0.624 13.323 0 21.575-2.12 43.15-3.595 64.307-6.759 16.281-2.54 32.153-6.338 47.81-11.612 22.221-7.393 41.247-20.06 59.659-34.632 7.823-5.908 14.172-13.086 16.916-22.17 5.929-14.99 3.38-25.118-7.608-33.351z m133.662 16.077c-1.105-12.186-2.201-24.986-3.747-37.171-1.536-16.794-3.298-33.588-4.834-50.596-1.536-15.534-2.201-30.864-3.307-46.408-1.536-21.412-3.297-42.834-4.844-64.256l-3.297-47.452c-0.44-5.878-2.867-7.342-9.236-6.922a834.662 834.662 0 0 1-22.887 1.464c-6.605 0.635-13.21 1.475-19.589 2.1 19.804 100.372 28.61 200.949 38.953 300.687 12.104 1.054 23.101 1.679 34.55 2.734 2.201 0.41 3.297 0 3.297-2.1l-1.096-11.55c-0.88-13.865-2.427-27.3-3.963-40.53z m-64.819 10.291c-1.362-12.493-2.54-24.78-3.911-37.263-1.362-14.152-2.54-28.519-4.301-42.67-0.983-8.745-2.355-17.07-3.523-25.396-0.389-3.133-2.355-4.587-5.478-4.167-5.489 0.614-11.356 0.614-17.03 1.454-7.833 1.044-15.667 2.498-23.879 3.543A19510.4 19510.4 0 0 0 349.747 678.4c11.745-1.67 22.897-3.123 34.253-4.577-0.39-4.168-0.983-8.325-1.372-12.083-1.567-13.732-3.134-27.055-4.506-40.172z m120.668 51.814c-0.41-20.858-1.024-41.082-1.443-61.941-0.41-25.703 0-51.815 0-77.517 0-5.694-0.41-10.957-0.615-16.65 0-2.53-1.464-4.629-4.157-4.629a838.164 838.164 0 0 0-32.553-0.645c-4.147 0-7.885 0.635-12.022 1.475 0.41 1.474 0.41 2.529 0.41 3.584 1.454 17.694 3.113 35.174 4.567 52.449 1.454 16.855 3.102 34.13 4.556 50.985 1.66 18.33 3.113 36.659 4.772 54.989 0 1.044 1.66 2.734 2.693 2.734 10.988 0.41 22.59 0 34.202 0-0.41-2.325-0.41-3.79-0.41-4.844zM358.4 484.71c-1.792-20.07-3.226-39.075-4.833-58.511-0.359-2.53-1.25-3.799-3.042-3.799-5.734 0-11.642 0-17.725 0.42 2.324 21.545 4.475 42.25 6.8 63.58 6.625-0.635 12.533-0.85 18.8-1.69zM512 494.89v-54.733c0-3.88-1.638-4.956-5.171-4.956H486.4v62.925c8.93 0.43 17.377 0.645 25.6 1.075v-4.3z m-179.2 1.372v-4.198c-0.952-10.896-2.294-21.381-3.246-32.287-0.574-6.912-1.331-13.62-1.915-20.756-0.379-1.68 0.39-4.199-2.294-3.769-6.113 0.625-12.032 2.09-18.145 2.724 3.44 20.757 6.687 40.888 10.127 61.225l15.473-2.939z m140.8 1.434v-32.533c0-8.56-0.481-17.551 0-26.112 0-3.205-1.198-3.85-4.3-3.85H448c1.915 22.262 3.584 43.233 5.499 64 6.461-0.43 12.923-0.86 20.101-1.495z m283.74 97.659c-13.107-9.933-27.914-16.896-43.141-23.03-31.089-12.247-63.662-16.691-96.86-15.841-7.823 0-15.647 0.634-23.685 1.054 0-0.635-0.635-1.474-0.635-2.54-2.11-23.654-4.65-47.308-6.349-70.553-1.474-19.435-2.11-38.87-2.53-58.296-0.634-37.397-0.634-74.578-0.634-111.964 0-8.868-0.635-7.813-7.404-4.854-20.93 8.448-41.656 16.691-62.597 24.709-0.635 0.42-1.69 2.54-1.474 3.584a563.077 563.077 0 0 1 14.162 72.038c3.174 20.92 5.929 41.196 8.888 61.686 2.54 17.961 4.23 35.912 6.349 54.078 2.11 18.38 4.649 36.761 6.758 55.347 2.12 17.746 4.23 34.857 6.349 52.603 1.475 12.677 2.744 25.139 3.799 37.816 0.635 9.933 1.485 19.855 1.7 29.358 0 2.11 0.635 3.175 2.744 3.175 4.65 0 8.878 0.624 13.322 0 21.576-2.12 43.142-3.595 64.287-6.759a286.618 286.618 0 0 0 47.79-11.622c22.21-7.394 41.247-20.07 59.638-34.642 7.823-5.919 14.172-13.107 16.916-22.19 6.144-14.787 3.595-24.924-7.393-33.157z m133.601 15.923c-1.105-12.186-2.201-24.986-3.747-37.171-1.536-16.794-3.298-33.588-4.834-50.596-1.536-15.534-2.201-30.864-3.307-46.408-1.536-21.412-3.297-42.834-4.844-64.256l-3.297-47.452c-0.44-5.878-2.867-7.342-9.236-6.922-7.711 0.624-15.186 1.044-22.887 1.464-6.605 0.635-13.21 1.475-19.589 2.1 19.804 100.372 28.61 200.949 38.953 300.687 12.104 1.054 23.101 1.679 34.55 2.734 2.201 0.41 3.297 0 3.297-2.1l-1.096-11.55c-0.88-13.865-2.427-27.3-3.963-40.53z m-64.819 10.291c-1.362-12.493-2.54-24.78-3.911-37.263-1.362-14.152-2.54-28.519-4.301-42.67-0.983-8.745-2.355-17.07-3.523-25.396-0.389-3.133-2.355-4.587-5.478-4.167-5.489 0.614-11.356 0.614-17.03 1.454-7.833 1.044-15.667 2.498-23.879 3.543A19510.4 19510.4 0 0 0 797.747 678.4 2574.848 2574.848 0 0 1 832 673.823c-0.39-4.168-0.983-8.325-1.372-12.083-1.567-13.732-3.134-27.055-4.506-40.172z m133.468 51.814c-0.41-20.858-1.024-41.082-1.443-61.941-0.41-25.703 0-51.815 0-77.517 0-5.694-0.41-10.957-0.615-16.65 0-2.53-1.464-4.629-4.157-4.629a838.185 838.185 0 0 0-32.553-0.645c-4.147 0-7.885 0.635-12.022 1.475 0.41 1.474 0.41 2.529 0.41 3.584 1.454 17.694 3.113 35.174 4.567 52.449 1.454 16.855 3.102 34.13 4.556 50.985 1.66 18.33 3.113 36.659 4.772 54.989 0 1.044 1.66 2.734 2.693 2.734 10.988 0.41 22.59 0 34.202 0-0.41-2.325-0.41-3.79-0.41-4.844zM806.4 484.71c-1.792-20.07-3.226-39.075-4.833-58.511-0.359-2.53-1.25-3.799-3.042-3.799-5.734 0-11.642 0-17.725 0.42 2.324 21.545 4.475 42.25 6.8 63.58 6.625-0.635 12.533-0.85 18.8-1.69zM960 494.89v-54.733c0-3.88-1.638-4.956-5.171-4.956H934.4v62.925c8.93 0.43 17.377 0.645 25.6 1.075v-4.3z m-179.2 1.372v-4.198c-0.952-10.896-2.294-21.381-3.246-32.287-0.574-6.912-1.331-13.62-1.915-20.756-0.379-1.68 0.39-4.199-2.294-3.769-6.113 0.625-12.032 2.09-18.145 2.724 3.44 20.757 6.687 40.888 10.127 61.225l15.473-2.939z m153.6 1.434v-32.533c0-8.56-0.481-17.551 0-26.112 0-3.205-1.198-3.85-4.3-3.85h-21.3c1.915 22.262 3.584 43.233 5.499 64 6.461-0.43 12.923-0.86 20.101-1.495z" fill="#F08198" p-id="14442"></path><path d="M193.495 668.16c-3.062-21.79-6.113-42.988-9.175-64 11.817 2.53 61.553 21.402 64 24.32-18.135 13.025-36.076 26.255-54.825 39.68z m440.32 0a12622.848 12622.848 0 0 0-9.175-64c11.817 2.53 61.553 21.402 64 24.32-18.145 13.025-36.076 26.255-54.825 39.68z" fill="#F08198" p-id="14443"></path></svg>