<?xml version="1.0" standalone="no"?><!DOCTYPE svg PUBLIC "-//W3C//DTD SVG 1.1//EN" "http://www.w3.org/Graphics/SVG/1.1/DTD/svg11.dtd"><svg t="1584799436263" class="icon" viewBox="0 0 1239 1024" version="1.1" xmlns="http://www.w3.org/2000/svg" p-id="12157" xmlns:xlink="http://www.w3.org/1999/xlink" width="241.9921875" height="200"><defs><style type="text/css"></style></defs><path d="M1126.022737 94.585263c-114.580211-109.406316-286.504421-93.776842-286.504421-93.776842a35.570526 35.570526 0 0 0-36.432842 36.486737v20.857263c0 20.803368 15.629474 36.432842 36.432842 36.432842 0 0 161.468632-15.629474 234.442105 83.375158 67.691789 98.950737 41.660632 229.160421 41.660632 229.160421-5.227789 20.803368 10.401684 36.432842 31.258947 36.432842h15.629474c20.803368 0 41.660632-15.629474 41.660631-36.432842 0 0 36.432842-197.955368-78.147368-312.535579z" fill="#FF9933" p-id="12158"></path><path d="M1006.214737 209.165474c-62.517895-57.290105-145.839158-36.432842-145.839158-36.432842-15.629474 0-26.031158 15.629474-26.031158 31.258947v10.401684c0 15.629474 10.401684 26.031158 26.031158 26.031158 0 0 67.691789-10.401684 104.178526 31.258947 31.258947 41.660632 5.227789 104.178526 5.22779 104.178527-5.227789 15.629474 5.173895 26.031158 15.629473 26.031158h31.258948c15.629474 0 26.031158-10.401684 31.258947-26.031158-5.227789 0 20.803368-109.406316-41.714526-166.696421z" fill="#DD8419" p-id="12159"></path><path d="M693.679158 636.281263c-20.803368-93.776842-124.981895-156.294737-239.562105-135.383579-114.580211 20.803368-192.727579 119.754105-171.924211 213.530948 20.857263 93.776842 125.035789 156.294737 239.616 135.437473 109.406316-20.857263 187.553684-114.580211 171.924211-213.584842zM443.715368 756.143158c-36.486737 15.629474-72.973474 10.401684-83.375157-20.803369-10.401684-26.085053 5.227789-62.517895 41.660631-78.147368 36.486737-15.629474 72.919579-10.401684 83.375158 20.803368 10.401684 26.085053-5.227789 62.517895-41.660632 78.147369z m78.147369-83.321263a35.570526 35.570526 0 0 1-36.486737-36.486737 35.570526 35.570526 0 0 1 36.432842-36.432842 35.570526 35.570526 0 0 1 36.486737 36.432842 35.570526 35.570526 0 0 1-36.486737 36.486737z" fill="#0C0414" p-id="12160"></path><path d="M876.005053 464.410947c0-10.401684 98.950737-104.178526 0-166.696421s-286.450526 31.258947-281.276632 20.857263c78.147368-140.665263-36.432842-182.325895-93.776842-182.325894-140.611368 0-499.981474 307.307789-499.981474 505.263158 0 197.901474 239.562105 354.196211 541.642106 354.19621 296.96 0 536.522105-156.294737 536.522105-354.19621 0-166.696421-203.129263-166.696421-203.129263-177.098106z m-322.937264 421.888c-192.727579 26.031158-359.370105-52.062316-374.999578-177.098105-15.629474-125.035789 125.035789-250.017684 312.481684-276.048842 192.727579-26.031158 359.424 52.116211 375.053473 177.098105 20.803368 125.035789-119.808 250.017684-312.535579 276.048842z" fill="#E6162D" p-id="12161"></path></svg>