<?xml version="1.0" standalone="no"?><!DOCTYPE svg PUBLIC "-//W3C//DTD SVG 1.1//EN" "http://www.w3.org/Graphics/SVG/1.1/DTD/svg11.dtd"><svg t="1584878186185" class="icon" viewBox="0 0 1024 1024" version="1.1" xmlns="http://www.w3.org/2000/svg" p-id="2638" xmlns:xlink="http://www.w3.org/1999/xlink" width="200" height="200"><defs><style type="text/css"></style></defs><path d="M549.201219 1024h-74.203311a476.249306 476.249306 0 0 1-474.969448-474.969448v-74.061104a476.249306 476.249306 0 0 1 474.969448-474.969448h74.203311a476.249306 476.249306 0 0 1 474.969448 474.969448v74.203311A476.249306 476.249306 0 0 1 549.201219 1024z" fill="#DD1829" p-id="2639"></path><path d="M793.48341 376.875458c-12.485724-41.353627-22.297967-64.248861-63.623153-69.226086 0 0-110.72192-5.688257-220.818132-5.688257-108.844795 0-217.092323 5.688257-217.092323 5.688257-43.828019 4.977225-54.26597 29.152316-65.414954 69.226086a848.659482 848.659482 0 0 0-11.234307 128.497723 930.257527 930.257527 0 0 0 11.234307 133.503388c8.731474 38.850794 26.649483 64.248861 65.414954 69.254528 0 0 120.135985 7.480058 234.555272 7.480057 104.038218 0 203.355183-7.480058 203.355183-7.480057 38.850794-7.480058 52.388846-27.9009 63.623153-69.254528a790.980558 790.980558 0 0 0 11.234307-124.771914 995.274303 995.274303 0 0 0-11.234307-137.229197z m-342.461505 241.409621v-220.818131l170.306411 110.409066z" fill="#FFFFFF" p-id="2640"></path></svg>