<?xml version="1.0" standalone="no"?><!DOCTYPE svg PUBLIC "-//W3C//DTD SVG 1.1//EN" "http://www.w3.org/Graphics/SVG/1.1/DTD/svg11.dtd"><svg t="1584875568018" class="icon" viewBox="0 0 1028 1024" version="1.1" xmlns="http://www.w3.org/2000/svg" p-id="3519" xmlns:xlink="http://www.w3.org/1999/xlink" width="200.78125" height="200"><defs><style type="text/css"></style></defs><path d="M141.63 38.715C95.028 60.463 50.755 109.397 34.444 158.33c-18.642 52.817-18.642 664.875 0 717.692C51.53 926.51 95.027 974.666 143.96 995.637l41.943 18.642h671.088l39.613-18.642c46.604-21.748 90.877-70.681 107.188-119.615 18.641-52.817 18.641-664.875 0-717.692-16.311-48.933-60.584-97.867-107.188-119.615l-39.613-18.642H181.243l-39.612 18.642zM695.435 122.6c31.846 13.204 64.468 45.827 64.468 63.691s-20.971 43.497-35.73 43.497c-5.436 0-24.078-6.99-41.166-16.312-38.059-19.418-55.147-17.087-69.905 9.321-9.32 17.088-10.097 26.409-2.33 52.04 8.544 28.74 12.428 31.846 46.604 40.39 87.77 20.972 146.8 73.789 181.753 162.335 22.525 57.478 24.855 179.423 3.883 237.677-27.185 77.673-102.527 151.461-191.85 185.637-47.38 18.642-142.917 24.855-194.958 12.428-233.793-54.37-353.409-350.302-228.356-563.901 41.166-70.682 153.014-166.219 194.18-166.219 9.321 0 23.302 6.99 30.293 14.758 24.855 27.185 12.427 47.38-54.37 94.76-94.761 67.575-135.927 143.694-135.927 250.882 0 86.993 32.622 161.558 97.867 221.366 53.594 48.933 96.313 66.021 170.879 66.798 104.08 0 178.646-44.273 222.143-132.043 23.301-47.38 24.078-53.594 20.971-119.615-3.107-59.808-6.214-74.566-26.409-106.411-21.748-34.953-88.546-83.11-100.197-72.236-2.33 3.107 2.33 32.623 11.651 66.022 8.544 33.399 15.535 67.575 15.535 76.119 0 62.914-48.934 128.159-107.965 144.47-100.197 27.185-181.753-49.71-181.753-171.656 0-84.662 41.943-148.354 119.615-183.306l27.962-12.428-3.107-66.798c-3.883-60.584-2.33-69.128 13.205-89.323 38.06-47.38 100.197-64.468 153.014-41.943z" fill="#D81E06" p-id="3520"></path><path d="M514.458 423.193c-24.856 15.534-49.71 63.69-49.71 98.643 0 29.516 20.194 70.682 38.835 80.78 34.176 18.641 85.44-13.205 85.44-52.818 0-11.65-6.214-48.156-13.204-81.555-15.535-66.022-20.972-69.905-61.361-45.05z" fill="#D81E06" p-id="3521"></path></svg>